HIERARCHY
ROOT Hips
{
	OFFSET 0.000000 0.000000 0.000000
	CHANNELS 6 Xposition Yposition Zposition Zrotation Yrotation Xrotation 
	JOINT LHipJoint
	{
		OFFSET 0.000000 0.000000 0.000000
		CHANNELS 3 Zrotation Yrotation Xrotation
		JOINT LeftUpLeg
		{
			OFFSET 1.363060 -1.794630 0.839290
			CHANNELS 3 Zrotation Yrotation Xrotation
			JOINT LeftLeg
			{
				OFFSET 2.448110 -6.726130 0.000000
				CHANNELS 3 Zrotation Yrotation Xrotation
				JOINT LeftFoot
				{
					OFFSET 2.562200 -7.039590 0.000000
					CHANNELS 3 Zrotation Yrotation Xrotation
					JOINT LeftToeBase
					{
						OFFSET 0.157640 -0.433110 2.322550
						CHANNELS 3 Zrotation Yrotation Xrotation
						End Site
						{
							OFFSET 0.000000 0.000000 0.000000
						}
					}
				}
			}
		}
	}
	JOINT RHipJoint
	{
		OFFSET 0.000000 0.000000 0.000000
		CHANNELS 3 Zrotation Yrotation Xrotation
		JOINT RightUpLeg
		{
			OFFSET -1.305520 -1.794630 0.839290
			CHANNELS 3 Zrotation Yrotation Xrotation
			JOINT RightLeg
			{
				OFFSET -2.542530 -6.985550 0.000000
				CHANNELS 3 Zrotation Yrotation Xrotation
				JOINT RightFoot
				{
					OFFSET -2.568260 -7.056230 0.000000
					CHANNELS 3 Zrotation Yrotation Xrotation
					JOINT RightToeBase
					{
						OFFSET -0.164730 -0.452590 2.363150
						CHANNELS 3 Zrotation Yrotation Xrotation
						End Site
						{
							OFFSET 0.000000 0.000000 0.000000
						}
					}
				}
			}
		}
	}
}
MOTION
Frames: 19
Frame Time: 0.008333
4.248621 16.940220 2.589296 -174.303137 -87.254029 171.760071 -10.448760 2.784547 0.243445 -10.586974 8.505356 2.155620 -1.991134 0.194935 16.243922 2.031067 9.701115 -17.012191 -1.964100 0.000000 -23.422200 9.115441 -0.073972 -0.117102 11.442781 -12.619535 -29.818660 2.585765 -0.419767 15.757236 -1.531950 -7.232611 -3.544776 -1.092900 0.000000 -43.210400
4.084092 16.922346 2.584832 -177.713397 -87.445542 175.158166 -10.434093 2.812842 0.206820 -10.691797 8.520975 3.332284 -1.991476 0.136077 15.362030 2.053344 9.772770 -17.043432 -1.983499 -0.000000 -23.760401 9.049038 -0.039128 -0.016010 11.785455 -12.874514 -30.173346 2.761118 -0.167705 13.222814 -1.373182 -6.562781 -2.847026 -1.134000 0.000000 -45.220900
3.918923 16.902634 2.580465 178.710255 -87.604784 178.726075 -10.415729 2.836621 0.159480 -10.781687 8.561650 4.506859 -1.989731 0.078074 14.489950 2.074921 9.842920 -17.059565 -1.999200 -0.000000 -24.161300 8.989527 -0.002652 0.100133 12.103924 -13.025884 -30.479549 2.921922 0.085817 10.784691 -1.220195 -5.913322 -2.226743 -1.150001 0.000000 -46.960700
3.753093 16.881071 2.576091 175.137150 -87.734583 -177.699370 -10.391546 2.859407 0.103445 -10.854836 8.627027 5.660913 -1.987619 0.022688 13.642964 2.093814 9.898984 -17.063381 -2.009800 -0.000000 -24.632501 8.938345 0.039783 0.233007 12.388802 -13.063268 -30.739805 3.061448 0.340775 8.453049 -1.085943 -5.346444 -1.702197 -1.152100 0.000000 -48.381200
3.586695 16.857679 2.571871 171.863528 -87.830804 -174.423287 -10.362770 2.886352 0.037424 -10.898366 8.733037 6.800756 -1.985769 -0.027774 12.822368 2.106664 9.925634 -17.046013 -2.010800 -0.000001 -25.203100 8.896247 0.090416 0.377605 12.640661 -13.001065 -30.931911 3.176173 0.598226 6.212384 -0.977234 -4.903780 -1.266061 -1.152700 -0.000000 -49.534700
3.419411 16.832552 2.567366 168.729459 -87.910274 -171.272459 -10.330710 2.918746 -0.033476 -10.920399 8.868366 7.899608 -1.985820 -0.072559 12.050377 2.111975 9.913636 -17.010766 -2.001800 0.000000 -25.864600 8.861557 0.150022 0.533062 12.850929 -12.853771 -31.082961 3.262994 0.855193 4.086655 -0.902996 -4.628027 -0.935354 -1.162200 0.000000 -50.374500
3.251369 16.805798 2.562510 165.680683 -87.982082 -168.200902 -10.297810 2.958394 -0.107466 -10.915844 9.035166 8.958115 -1.987916 -0.110391 11.335746 2.107629 9.854391 -16.950807 -1.980100 -0.000000 -26.625799 8.833556 0.216900 0.692055 13.025109 -12.660769 -31.193551 3.322235 1.109355 2.073788 -0.864554 -4.531170 -0.696471 -1.188000 0.000001 -50.953800
3.082478 16.777596 2.557013 162.419314 -88.060819 -164.909072 -10.264254 3.004907 -0.181279 -10.889767 9.220795 9.970218 -1.992306 -0.140896 10.688911 2.093616 9.749029 -16.863820 -1.945800 0.000000 -27.478900 8.811574 0.289168 0.847757 13.167204 -12.459975 -31.285591 3.355394 1.355772 0.196101 -0.861761 -4.608668 -0.551323 -1.231900 -0.000000 -51.236000
2.912812 16.748237 2.550978 158.964905 -88.148071 -161.427481 -10.234495 3.061025 -0.255534 -10.823334 9.443332 10.934608 -1.998926 -0.162030 10.123540 2.066324 9.581168 -16.741828 -1.895300 -0.000001 -28.458400 8.794992 0.363250 0.993346 13.295912 -12.286350 -31.351352 3.366052 1.592882 -1.567111 -0.889923 -4.849828 -0.447168 -1.299200 0.000000 -51.405301
2.742311 16.718048 2.543978 154.723807 -88.258710 -157.156949 -10.204500 3.124031 -0.324549 -10.733488 9.666180 11.847672 -2.007102 -0.174259 9.646330 2.030377 9.374825 -16.590511 -1.833800 -0.000000 -29.523700 8.783964 0.437500 1.123600 13.412270 -12.168668 -31.425081 3.357673 1.813634 -3.172078 -0.944669 -5.219471 -0.398505 -1.382700 0.000000 -51.331100
2.571036 16.687362 2.536003 149.384321 -88.390565 -151.789388 -10.174585 3.194218 -0.387589 -10.614917 9.884761 12.708138 -2.015989 -0.176448 9.266042 1.986683 9.135437 -16.410817 -1.762800 -0.000000 -30.680200 8.778156 0.509753 1.235474 13.524705 -12.117169 -31.508993 3.334595 2.014810 -4.614496 -1.019220 -5.686857 -0.375424 -1.480500 0.000001 -51.082599
2.399117 16.656536 2.527006 142.426622 -88.537587 -144.805344 -10.143113 3.270648 -0.443196 -10.471102 10.083390 13.515987 -2.024259 -0.168057 8.986473 1.938363 8.879452 -16.207816 -1.685800 -0.000000 -31.927100 8.776966 0.579217 1.327469 13.634683 -12.130334 -31.612082 3.301649 2.192236 -5.870465 -1.106353 -6.211725 -0.371143 -1.586300 0.000000 -50.658400
2.226697 16.625916 2.517007 133.306272 -88.688432 -135.664365 -10.107274 3.351778 -0.487804 -10.304372 10.246166 14.273597 -2.029964 -0.149248 8.809672 1.888611 8.623895 -15.987304 -1.606700 0.000000 -33.253800 8.766375 0.643519 1.392778 13.737224 -12.159349 -32.074546 3.270280 2.272408 -6.187308 -1.163764 -6.738620 -0.789794 -1.695100 0.000000 -50.091301
2.053865 16.595806 2.506008 121.572449 -88.819554 -123.914554 -10.064055 3.435089 -0.519173 -10.128176 10.348106 14.988401 -2.031080 -0.120203 8.727824 1.842354 8.396389 -15.755625 -1.530101 -0.000000 -34.635000 8.745960 0.703387 1.432639 13.824380 -12.181110 -32.910791 3.247197 2.248673 -5.505686 -1.175698 -7.217139 -1.665030 -1.794800 0.000000 -49.366800
1.880714 16.566396 2.494292 107.846938 -88.895272 -110.171737 -10.026427 3.516937 -0.543532 -9.939376 10.400971 15.653031 -2.027059 -0.079978 8.746059 1.798283 8.192930 -15.510734 -1.455000 0.000000 -36.135200 8.733592 0.759379 1.469395 13.879993 -12.189891 -33.541969 3.222282 2.238152 -5.037350 -1.201709 -7.681924 -2.306657 -1.886000 0.000001 -48.596800
1.707172 16.537924 2.481952 93.571559 -88.899800 -95.876400 -9.998916 3.590375 -0.562075 -9.749610 10.393629 16.277207 -2.017862 -0.030576 8.857495 1.758295 8.023854 -15.254584 -1.383299 0.000000 -37.715900 8.727171 0.807104 1.506696 13.891054 -12.160989 -33.933323 3.196361 2.245600 -4.819783 -1.249930 -8.103725 -2.719605 -1.953800 0.000000 -47.718500
1.533256 16.510440 2.468987 80.598590 -88.833885 -82.881131 -9.978952 3.651231 -0.577115 -9.577667 10.311360 16.878199 -2.004143 0.026502 9.043122 1.725060 7.906000 -14.977291 -1.314700 -0.000000 -39.384400 8.727765 0.843902 1.544842 13.846191 -12.084590 -34.057601 3.168298 2.273689 -4.884368 -1.328104 -8.456003 -2.902619 -1.984500 0.000000 -46.752401
1.363405 16.486954 2.456763 37.180712 -88.668640 -39.646256 -9.889161 3.699629 -0.475816 -9.140770 9.401519 17.625620 -1.967642 0.146839 9.522970 1.701832 7.808205 -14.821932 -1.260900 -0.000000 -41.099900 8.854797 0.965168 1.244086 14.195783 -13.268747 -33.817032 3.244002 2.301930 -5.148153 -1.338418 -8.193469 -2.879428 -1.854100 0.000000 -46.111500
1.187868 16.461447 2.442889 34.015475 -88.457130 -36.455383 -9.878908 3.745575 -0.498688 -8.996036 9.224665 18.191704 -1.953709 0.220638 9.834951 1.674142 7.749244 -14.461968 -1.185900 -0.000001 -42.992100 8.873848 0.977270 1.294124 14.016065 -13.032046 -33.359403 3.202450 2.373421 -5.782893 -1.485452 -8.406283 -2.659251 -1.799100 0.000000 -44.919300
